<?xml version="1.0" encoding="UTF-8" standalone="no"?>
<!-- Created with Inkscape (http://www.inkscape.org/) -->

<svg
   xmlns:dc="http://purl.org/dc/elements/1.1/"
   xmlns:cc="http://creativecommons.org/ns#"
   xmlns:rdf="http://www.w3.org/1999/02/22-rdf-syntax-ns#"
   xmlns:svg="http://www.w3.org/2000/svg"
   xmlns="http://www.w3.org/2000/svg"
   xmlns:xlink="http://www.w3.org/1999/xlink"
   xmlns:sodipodi="http://sodipodi.sourceforge.net/DTD/sodipodi-0.dtd"
   xmlns:inkscape="http://www.inkscape.org/namespaces/inkscape"
   width="20mm"
   height="20mm"
   viewBox="0 0 20 20"
   version="1.1"
   id="svg6124"
   inkscape:version="0.92.4 (5da689c313, 2019-01-14)"
   sodipodi:docname="square.svg">
  <defs
     id="defs6118">
    <clipPath
       clipPathUnits="userSpaceOnUse"
       id="clipPath3744">
      <use
         x="0"
         y="0"
         xlink:href="#g3740"
         id="use3746"
         width="100%"
         height="100%" />
    </clipPath>
  </defs>
  <sodipodi:namedview
     id="base"
     pagecolor="#ffffff"
     bordercolor="#666666"
     borderopacity="1.0"
     inkscape:pageopacity="0.0"
     inkscape:pageshadow="2"
     inkscape:zoom="5.6"
     inkscape:cx="3.8663935"
     inkscape:cy="19.8079"
     inkscape:document-units="mm"
     inkscape:current-layer="layer1"
     showgrid="false"
     inkscape:pagecheckerboard="true"
     inkscape:window-width="1920"
     inkscape:window-height="1001"
     inkscape:window-x="-9"
     inkscape:window-y="-9"
     inkscape:window-maximized="1" />
  <metadata
     id="metadata6121">
    <rdf:RDF>
      <cc:Work
         rdf:about="">
        <dc:format>image/svg+xml</dc:format>
        <dc:type
           rdf:resource="http://purl.org/dc/dcmitype/StillImage" />
        <dc:title></dc:title>
      </cc:Work>
    </rdf:RDF>
  </metadata>
  <g
     inkscape:label="Layer 1"
     inkscape:groupmode="layer"
     id="layer1"
     transform="translate(0,-277)">
    <g
       id="g3742"
       clip-path="url(#clipPath3744)"
       transform="matrix(1.046236,0,0,1.046236,-6.0207609,258.99711)">
      <g
         inkscape:label="Clip"
         id="g3740">
        <path
           inkscape:connector-curvature="0"
           style="fill:#228822;fill-opacity:1;stroke-width:0.26458332"
           d="M 5.7546873,17.207293 H 24.870833 V 36.323439 H 5.7546873 Z"
           id="rect23" />
        <a
           id="a3732">
          <g
             aria-label="f"
             style="font-style:normal;font-variant:normal;font-weight:normal;font-stretch:normal;font-size:20.70224762px;line-height:1.25;font-family:'Varela Round';-inkscape-font-specification:'Varela Round';letter-spacing:0px;word-spacing:0px;fill:#ffffff;fill-opacity:1;stroke:none;stroke-width:0.51755619"
             id="text27">
            <path
               inkscape:connector-curvature="0"
               d="m 14.56748,34.476951 q -0.393343,0 -0.662472,-0.269129 -0.269129,-0.269129 -0.269129,-0.662472 v -8.115281 h -1.221433 q -0.331236,0 -0.579663,-0.227725 -0.227725,-0.248427 -0.227725,-0.579663 0,-0.351938 0.227725,-0.579663 0.248427,-0.227724 0.579663,-0.227724 h 1.221433 v -1.200731 q 0,-1.242135 0.434747,-2.02882 0.455449,-0.807388 1.159326,-1.159326 0.724578,-0.37264 1.511264,-0.37264 0.973005,0 1.801095,0.414045 0.207023,0.103511 0.331236,0.310533 0.144916,0.18632 0.144916,0.414045 0,0.310534 -0.227725,0.558961 -0.227725,0.227725 -0.538258,0.227725 -0.227725,0 -0.476152,-0.06211 -0.496854,-0.06211 -0.558961,-0.06211 -0.848792,0 -1.283539,0.393343 -0.414045,0.393343 -0.414045,1.428455 v 1.138624 h 2.587781 q 0.351938,0 0.579663,0.227724 0.227725,0.227725 0.227725,0.579663 0,0.331236 -0.227725,0.579663 -0.227725,0.227725 -0.579663,0.227725 h -2.587781 v 8.115281 q 0,0.393343 -0.289831,0.662472 -0.26913,0.269129 -0.662472,0.269129 z"
               style="fill:#ffffff;stroke-width:0.51755619"
               id="path5577" />
          </g>
        </a>
      </g>
    </g>
  </g>
</svg>
